<svg width="374" height="374" viewBox="0 0 374 374" fill="none" xmlns="http://www.w3.org/2000/svg">
<circle cx="187" cy="187" r="187" fill="url(#paint0_linear_1235_220)"/>
<path d="M134.244 168.381L122.035 180.4C120.865 181.552 119.532 182.533 118.078 183.312L114.515 185.222C111.808 186.673 108.776 187.437 105.693 187.445C103.226 187.451 100.857 186.488 99.1127 184.771L92.4509 178.213C85.8933 171.758 75.2612 171.758 68.7036 178.213C62.146 184.668 62.146 195.134 68.7036 201.59C75.2612 208.045 85.8932 208.045 92.4509 201.59L99.964 194.194C101.206 192.971 102.633 191.945 104.194 191.153L106.583 189.94C109.346 188.538 112.382 187.737 115.486 187.593C118.533 187.451 121.5 188.58 123.657 190.703L145.085 211.797C146.975 213.658 148.002 216.204 147.922 218.835C147.821 222.175 146.832 225.43 145.054 228.276L143.499 230.763C142.875 231.762 142.135 232.685 141.293 233.514L133.13 241.549C126.549 248.028 126.549 258.532 133.13 265.01C139.711 271.489 150.382 271.489 156.963 265.01C163.544 258.532 163.544 248.028 156.963 241.549L150.437 235.126C148.695 233.411 147.761 231.056 147.862 228.633C147.97 226.039 148.667 223.501 149.903 221.208L152.102 217.126C152.994 215.47 154.132 213.955 155.478 212.629L167.336 200.957C176.474 191.961 176.474 177.377 167.336 168.381C158.198 159.386 143.382 159.386 134.244 168.381Z" fill="url(#paint1_linear_1235_220)"/>
<path d="M205.294 131.354L193.084 119.335C191.914 118.183 190.918 116.871 190.126 115.44L188.186 111.933C186.712 109.267 185.936 106.283 185.928 103.248C185.922 100.819 186.9 98.4881 188.644 96.7706L195.306 90.2128C201.864 83.7575 201.864 73.2915 195.306 66.8362C188.749 60.3809 178.117 60.3809 171.559 66.8362C165.001 73.2914 165.001 83.7575 171.559 90.2128L179.072 97.6087C180.314 98.8313 181.356 100.236 182.161 101.773L183.393 104.125C184.818 106.844 185.631 109.833 185.778 112.889C185.922 115.888 184.775 118.808 182.618 120.932L161.19 142.025C159.3 143.886 156.713 144.897 154.04 144.818C150.647 144.719 147.34 143.745 144.449 141.994L141.923 140.465C140.908 139.85 139.971 139.121 139.128 138.292L130.966 130.257C124.384 123.778 113.714 123.778 107.133 130.257C100.551 136.735 100.551 147.239 107.133 153.718C113.714 160.196 124.384 160.196 130.966 153.718L137.491 147.294C139.233 145.579 141.625 144.66 144.087 144.759C146.722 144.865 149.3 145.552 151.63 146.768L155.777 148.933C157.459 149.811 158.998 150.931 160.344 152.257L172.202 163.929C181.34 172.925 196.156 172.925 205.294 163.929C214.432 154.934 214.432 140.349 205.294 131.354Z" fill="url(#paint2_linear_1235_220)"/>
<path d="M238.128 206.041L250.337 194.022C251.507 192.87 252.84 191.889 254.294 191.11L257.857 189.2C260.564 187.749 263.596 186.985 266.679 186.978C269.147 186.971 271.515 187.934 273.259 189.651L279.921 196.209C286.479 202.664 297.111 202.664 303.668 196.209C310.226 189.754 310.226 179.288 303.668 172.832C297.111 166.377 286.479 166.377 279.921 172.832L272.408 180.228C271.166 181.451 269.739 182.477 268.178 183.269L265.789 184.482C263.027 185.884 259.99 186.685 256.886 186.829C253.839 186.971 250.872 185.842 248.715 183.719L227.287 162.625C225.397 160.764 224.37 158.218 224.45 155.587C224.551 152.247 225.54 148.992 227.319 146.146L228.873 143.659C229.497 142.66 230.237 141.737 231.079 140.908L239.242 132.873C245.824 126.394 245.824 115.89 239.242 109.412C232.661 102.933 221.991 102.933 215.409 109.412C208.828 115.89 208.828 126.394 215.409 132.873L221.935 139.296C223.677 141.011 224.611 143.366 224.51 145.789C224.403 148.383 223.705 150.921 222.469 153.215L220.27 157.297C219.378 158.952 218.24 160.467 216.894 161.793L205.036 173.465C195.898 182.461 195.898 197.045 205.036 206.041C214.174 215.036 228.99 215.036 238.128 206.041Z" fill="url(#paint3_linear_1235_220)"/>
<path d="M167.422 243.406L179.631 255.425C180.802 256.577 181.798 257.889 182.59 259.32L184.53 262.827C186.004 265.493 186.78 268.477 186.787 271.512C186.794 273.941 185.816 276.272 184.071 277.989L177.41 284.547C170.852 291.002 170.852 301.469 177.41 307.924C183.967 314.379 194.599 314.379 201.157 307.924C207.715 301.469 207.715 291.003 201.157 284.547L193.644 277.151C192.402 275.929 191.36 274.524 190.555 272.987L189.323 270.635C187.898 267.916 187.085 264.927 186.938 261.871C186.794 258.872 187.941 255.952 190.098 253.828L211.526 232.735C213.416 230.874 216.003 229.863 218.675 229.942C222.068 230.041 225.376 231.015 228.267 232.766L230.793 234.295C231.807 234.91 232.745 235.639 233.587 236.468L241.75 244.503C248.331 250.982 259.002 250.982 265.583 244.503C272.164 238.025 272.164 227.521 265.583 221.042C259.002 214.564 248.331 214.564 241.75 221.042L235.225 227.466C233.482 229.181 231.091 230.1 228.629 230.001C225.994 229.895 223.416 229.208 221.086 227.992L216.939 225.827C215.257 224.949 213.718 223.829 212.372 222.503L200.514 210.831C191.376 201.835 176.56 201.835 167.422 210.831C158.284 219.826 158.284 234.411 167.422 243.406Z" fill="url(#paint4_linear_1235_220)"/>
<defs>
<linearGradient id="paint0_linear_1235_220" x1="355.932" y1="363.159" x2="25.2947" y2="34.3285" gradientUnits="userSpaceOnUse">
<stop stop-color="#3255A4"/>
<stop offset="1" stop-color="#0D9DDB"/>
</linearGradient>
<linearGradient id="paint1_linear_1235_220" x1="62.3384" y1="159.142" x2="185.451" y2="256.088" gradientUnits="userSpaceOnUse">
<stop offset="0.454699" stop-color="white"/>
<stop offset="1" stop-color="white" stop-opacity="0.54"/>
</linearGradient>
<linearGradient id="paint2_linear_1235_220" x1="214.68" y1="60.5703" x2="119.992" y2="184.657" gradientUnits="userSpaceOnUse">
<stop offset="0.454699" stop-color="white"/>
<stop offset="1" stop-color="white" stop-opacity="0.54"/>
</linearGradient>
<linearGradient id="paint3_linear_1235_220" x1="310.034" y1="215.28" x2="186.921" y2="118.334" gradientUnits="userSpaceOnUse">
<stop offset="0.454699" stop-color="white"/>
<stop offset="1" stop-color="white" stop-opacity="0.54"/>
</linearGradient>
<linearGradient id="paint4_linear_1235_220" x1="158.036" y1="314.19" x2="252.724" y2="190.103" gradientUnits="userSpaceOnUse">
<stop offset="0.454699" stop-color="white"/>
<stop offset="1" stop-color="white" stop-opacity="0.54"/>
</linearGradient>
</defs>
</svg>
